<svg width="512" height="512" viewBox="0 0 512 512" fill="none" xmlns="http://www.w3.org/2000/svg">
<path opacity="0.908" fill-rule="evenodd" clip-rule="evenodd" d="M248.5 8.49997C295.621 8.07325 315.121 31.0733 307 77.5C303.011 96.9816 294.178 113.815 280.5 128C266.505 140.233 251.505 141.566 235.5 132C213.91 112.46 202.577 87.9603 201.5 58.5C202.687 28.3111 218.353 11.6444 248.5 8.49997ZM246.5 21.5C259.173 20.1352 271.173 22.3018 282.5 28C292.264 35.7788 296.931 45.9454 296.5 58.5C288.694 58.895 281.028 58.0617 273.5 56C264.464 52.7314 255.964 48.5648 248 43.5C245.127 43.5982 243.127 44.9316 242 47.5C241.256 50.8708 241.756 54.0375 243.5 57C233.03 56.8435 223.697 53.5101 215.5 47C220.58 32.0843 230.914 23.5843 246.5 21.5ZM214.5 62.5C228.101 69.4545 242.434 71.9545 257.5 70C258.68 68.1039 260.18 66.6039 262 65.5C272.967 69.6737 284.133 71.6737 295.5 71.5C292.651 86.1928 286.818 99.5261 278 111.5C263 130.167 248 130.167 233 111.5C222.369 96.8964 216.203 80.5631 214.5 62.5Z" fill="#32BCEB"/>
<path opacity="0.935" fill-rule="evenodd" clip-rule="evenodd" d="M70.5001 67.5C104.502 67.3333 138.502 67.5 172.5 68C175.991 69.8208 177.157 72.6542 176 76.5C175.5 78.3333 174.333 79.5 172.5 80C141.168 80.5 109.835 80.6666 78.5001 80.5C78.3334 158.167 78.5001 235.834 79.0001 313.5C87.1668 305.333 95.3334 297.167 103.5 289C111.434 286.603 114.601 289.436 113 297.5C100.5 310 88.0001 322.5 75.5001 335C73.5001 335.667 71.5001 335.667 69.5001 335C56.3624 322.863 43.529 310.363 31.0001 297.5C29.674 289.83 32.8407 286.997 40.5001 289C48.6967 297.531 57.1967 305.698 66.0001 313.5C66.3334 232.5 66.6668 151.5 67.0001 70.5C68.1452 69.3636 69.3118 68.3636 70.5001 67.5Z" fill="#32BCEB"/>
<path opacity="0.935" fill-rule="evenodd" clip-rule="evenodd" d="M338.5 67.5C372.502 67.3333 406.502 67.5 440.5 68C441.931 68.4652 443.097 69.2986 444 70.5C444.333 151.5 444.667 232.5 445 313.5C453.803 305.698 462.303 297.531 470.5 289C478.159 286.997 481.326 289.83 480 297.5C467.471 310.363 454.638 322.863 441.5 335C439.5 335.667 437.5 335.667 435.5 335C423 322.5 410.5 310 398 297.5C396.399 289.436 399.566 286.603 407.5 289C415.667 297.167 423.833 305.333 432 313.5C432.5 235.834 432.667 158.167 432.5 80.5C401.165 80.6666 369.832 80.5 338.5 80C333.232 75.8375 333.232 71.6708 338.5 67.5Z" fill="#32BCEB"/>
<path opacity="0.903" fill-rule="evenodd" clip-rule="evenodd" d="M213.5 140.5C218.806 139.641 222.14 141.807 223.5 147C222.87 148.892 221.87 150.559 220.5 152C166.382 160.704 145.549 191.87 158 245.5C160.586 251.088 164.753 254.921 170.5 257C227.167 257.667 283.833 257.667 340.5 257C347.428 254.406 351.928 249.573 354 242.5C365.543 190.109 344.71 159.942 291.5 152C286.785 146.019 288.119 142.186 295.5 140.5C351.993 149.125 376.159 181.792 368 238.5C365.808 255.689 356.308 266.189 339.5 270C283.167 270.667 226.833 270.667 170.5 270C152.079 265.054 142.913 252.888 143 233.5C137.535 180.396 161.035 149.396 213.5 140.5ZM252.5 160.5C254.5 160.5 256.5 160.5 258.5 160.5C258.663 162.857 258.497 165.19 258 167.5C256.333 170.167 254.667 170.167 253 167.5C252.503 165.19 252.337 162.857 252.5 160.5ZM252.5 181.5C254.5 181.5 256.5 181.5 258.5 181.5C260.382 193.743 262.715 205.909 265.5 218C262.699 221.968 259.366 225.468 255.5 228.5C251.634 225.468 248.301 221.968 245.5 218C248.285 205.909 250.618 193.743 252.5 181.5Z" fill="#32BCEB"/>
<path opacity="0.866" fill-rule="evenodd" clip-rule="evenodd" d="M304.5 198.5C312.174 198.334 319.841 198.5 327.5 199C331.124 201.161 332.291 204.328 331 208.5C330.097 209.701 328.931 210.535 327.5 211C319.833 211.667 312.167 211.667 304.5 211C300.21 208.469 299.377 204.969 302 200.5C302.995 199.934 303.828 199.267 304.5 198.5Z" fill="#32BCEB"/>
<path opacity="0.91" fill-rule="evenodd" clip-rule="evenodd" d="M242.5 294.5C252.58 294.077 262.58 294.577 272.5 296C274.004 297.491 274.837 299.324 275 301.5C275.333 305.833 275.667 310.167 276 314.5C284.912 317.206 293.412 320.873 301.5 325.5C305.318 322.182 308.985 318.682 312.5 315C314.833 314.333 317.167 314.333 319.5 315C326.698 321.864 333.532 329.03 340 336.5C340.635 338.635 340.301 340.635 339 342.5C335.451 345.713 332.284 349.213 329.5 353C334.379 361.256 337.712 370.089 339.5 379.5C344.211 379.718 348.878 379.385 353.5 378.5C356.168 378.745 358.002 380.079 359 382.5C359.667 392.833 359.667 403.167 359 413.5C358.692 414.308 358.192 414.975 357.5 415.5C351.561 416.457 345.561 416.79 339.5 416.5C337.706 425.921 334.372 434.754 329.5 443C331.95 446.453 334.783 449.62 338 452.5C340.521 455.348 340.854 458.348 339 461.5C331.921 469.251 324.254 476.251 316 482.5C310.756 479.262 306.089 475.262 302 470.5C294.023 476.239 285.19 479.906 275.5 481.5C279.654 499.011 272.987 506.011 255.5 502.5C250.5 502.333 245.5 502.167 240.5 502C238.951 500.786 237.785 499.286 237 497.5C236.829 492.467 236.329 487.467 235.5 482.5C226.441 480.052 217.941 476.385 210 471.5C206.5 475 203 478.5 199.5 482C197.167 482.667 194.833 482.667 192.5 482C185.667 475.167 178.833 468.333 172 461.5C171.294 459.029 171.627 456.695 173 454.5C176.349 451.318 179.516 447.985 182.5 444.5C177.605 436.379 174.105 427.712 172 418.5C166.583 417.691 161.083 417.191 155.5 417C154.333 416.5 153.5 415.667 153 414.5C152.333 403.833 152.333 393.167 153 382.5C153.833 381.667 154.667 380.833 155.5 380C161.157 379.501 166.824 379.334 172.5 379.5C174.294 370.079 177.628 361.246 182.5 353C179.716 349.213 176.549 345.713 173 342.5C171 339.833 171 337.167 173 334.5C179.5 328 186 321.5 192.5 315C195.303 314.245 197.97 314.578 200.5 316C203.667 319.167 206.833 322.333 210 325.5C217.971 320.597 226.471 316.931 235.5 314.5C236.329 309.533 236.829 304.533 237 299.5C238.107 296.887 239.94 295.22 242.5 294.5ZM249.5 307.5C253.833 307.5 258.167 307.5 262.5 307.5C262.334 312.511 262.501 317.511 263 322.5C263.5 324.333 264.667 325.5 266.5 326C272.668 327.056 278.668 328.723 284.5 331C290.792 334.062 296.959 337.228 303 340.5C307.908 337.598 312.242 333.931 316 329.5C319.586 332.384 322.252 335.717 324 339.5C321 342.5 318 345.5 315 348.5C314.333 350.5 314.333 352.5 315 354.5C322.528 365.411 327.528 377.411 330 390.5C335.304 392.308 340.804 392.975 346.5 392.5C346.5 396.5 346.5 400.5 346.5 404.5C341.489 404.334 336.489 404.501 331.5 405C330.667 405.833 329.833 406.667 329 407.5C326.669 419.836 322.002 431.169 315 441.5C314.245 444.303 314.578 446.97 316 449.5C318.833 452.333 321.667 455.167 324.5 458C321.667 460.833 318.833 463.667 316 466.5C313.167 463.667 310.333 460.833 307.5 458C305.966 457.077 304.299 456.577 302.5 456.5C296.25 459.625 289.917 462.792 283.5 466C277.668 468.277 271.668 469.944 265.5 471C264.667 471.833 263.833 472.667 263 473.5C262.501 478.823 262.334 484.156 262.5 489.5C258.167 489.5 253.833 489.5 249.5 489.5C249.666 484.489 249.499 479.489 249 474.5C248.167 473.667 247.333 472.833 246.5 472C234.213 469.519 222.88 464.853 212.5 458C210.167 457.333 207.833 457.333 205.5 458C202.333 461.167 199.167 464.333 196 467.5C192.984 464.651 190.15 461.651 187.5 458.5C190.484 455.015 193.651 451.682 197 448.5C197.167 447.5 197.333 446.5 197.5 445.5C194.026 438.552 190.526 431.552 187 424.5C185.159 419.297 183.826 413.964 183 408.5C182.167 407.667 181.333 406.833 180.5 406C175.177 405.501 169.844 405.334 164.5 405.5C164.5 401.167 164.5 396.833 164.5 392.5C170.262 392.851 175.928 392.351 181.5 391C183.713 385.324 185.546 379.491 187 373.5C190.13 366.075 193.63 358.908 197.5 352C195.54 347.024 192.373 342.857 188 339.5C189.431 335.876 191.931 332.876 195.5 330.5C199.307 334.812 203.807 338.145 209 340.5C220.845 332.993 233.678 327.827 247.5 325C248.126 324.25 248.626 323.416 249 322.5C249.499 317.511 249.666 312.511 249.5 307.5Z" fill="#32BCEB"/>
<path opacity="0.91" fill-rule="evenodd" clip-rule="evenodd" d="M249.5 347.5C278.028 347.007 296.528 360.34 305 387.5C308.878 415.249 298.045 434.749 272.5 446C244.019 453.296 222.852 444.129 209 418.5C199.776 391.507 206.942 370.007 230.5 354C236.715 351.096 243.049 348.929 249.5 347.5ZM248.5 360.5C229.425 365.919 219.091 378.586 217.5 398.5C219.814 421.48 232.48 434.147 255.5 436.5C278.428 434.045 291.095 421.379 293.5 398.5C290.131 372.135 275.131 359.469 248.5 360.5Z" fill="#32BCEB"/>
<path opacity="0.905" fill-rule="evenodd" clip-rule="evenodd" d="M65.5001 363.5C94.0402 363.564 105.207 377.564 99.0001 405.5C95.7332 418.088 88.2332 426.921 76.5001 432C68.3935 433.032 61.5602 430.532 56.0001 424.5C47.3895 413.668 43.3895 401.335 44.0001 387.5C46.487 375.186 53.6537 367.186 65.5001 363.5ZM70.5001 375.5C81.2298 376.193 87.2298 381.859 88.5001 392.5C87.8504 402.63 83.8504 411.13 76.5001 418C74.3047 419.373 71.9713 419.706 69.5001 419C57.4558 408.567 54.2892 396.067 60.0001 381.5C63.0689 378.554 66.5689 376.554 70.5001 375.5Z" fill="#32BCEB"/>
<path opacity="0.904" fill-rule="evenodd" clip-rule="evenodd" d="M431.5 363.5C458.394 362.893 469.894 375.893 466 402.5C463.7 411.938 459.2 420.104 452.5 427C441.769 434.908 431.769 434.075 422.5 424.5C413.65 414.118 409.484 402.118 410 388.5C412.046 375.629 419.213 367.296 431.5 363.5ZM436.5 375.5C451.793 377.726 457.293 386.393 453 401.5C450.693 409.501 446.026 415.501 439 419.5C434.166 418.006 430.499 415.006 428 410.5C425.057 404.838 423.224 398.838 422.5 392.5C423.231 383.447 427.898 377.781 436.5 375.5Z" fill="#32BCEB"/>
<path opacity="0.905" fill-rule="evenodd" clip-rule="evenodd" d="M44.5 433.5C48.3076 433.163 51.9743 433.663 55.5 435C61.0146 440.682 66.6813 446.182 72.5 451.5C78.6832 445.483 85.0166 439.649 91.5 434C120.375 434.04 135.375 448.54 136.5 477.5C137.604 490.48 131.938 498.647 119.5 502C88.1667 502.667 56.8333 502.667 25.5 502C16 500.5 10.5 495 9 485.5C5.46171 457.267 17.295 439.933 44.5 433.5ZM43.5 446.5C45.5273 446.338 47.5273 446.505 49.5 447C55.8333 453.333 62.1667 459.667 68.5 466C71.1667 468 73.8333 468 76.5 466C82.8333 459.667 89.1667 453.333 95.5 447C108.304 446.802 117.137 452.635 122 464.5C123.496 471.099 123.829 477.766 123 484.5C122.215 486.286 121.049 487.786 119.5 489C88.1667 489.667 56.8333 489.667 25.5 489C21.9789 485.679 20.6456 481.513 21.5 476.5C21.5537 461.027 28.887 451.027 43.5 446.5Z" fill="#32BCEB"/>
<path opacity="0.905" fill-rule="evenodd" clip-rule="evenodd" d="M410.5 433.5C414.308 433.163 417.974 433.663 421.5 435C427.015 440.682 432.681 446.182 438.5 451.5C444.683 445.483 451.017 439.649 457.5 434C490.406 435.254 505.239 452.42 502 485.5C500.5 495 495 500.5 485.5 502C454.167 502.667 422.833 502.667 391.5 502C382.215 499.715 376.715 493.882 375 484.5C371.963 456.76 383.797 439.76 410.5 433.5ZM409.5 446.5C411.527 446.338 413.527 446.505 415.5 447C421.833 453.333 428.167 459.667 434.5 466C437.167 468 439.833 468 442.5 466C448.833 459.667 455.167 453.333 461.5 447C475.64 447.154 484.807 453.987 489 467.5C489.667 473.5 489.667 479.5 489 485.5C487.833 486.667 486.667 487.833 485.5 489C454.167 489.667 422.833 489.667 391.5 489C389.951 487.786 388.785 486.286 388 484.5C384.648 465.508 391.815 452.841 409.5 446.5Z" fill="#32BCEB"/>
</svg>
